<svg width="69" height="20" viewBox="0 0 69 20" fill="none" xmlns="http://www.w3.org/2000/svg">
<path d="M5.216 4.976H7.328V16H5.216V4.976ZM0.256 4H12.288V5.856H0.256V4ZM13.6509 6.88L14.6909 7.072L15.7309 6.88V16H13.6509V6.88ZM14.6909 5.744C14.2962 5.744 13.9709 5.63733 13.7149 5.424C13.4589 5.2 13.3309 4.912 13.3309 4.56C13.3309 4.208 13.4589 3.92533 13.7149 3.712C13.9709 3.488 14.2962 3.376 14.6909 3.376C15.0962 3.376 15.4215 3.488 15.6669 3.712C15.9229 3.92533 16.0509 4.208 16.0509 4.56C16.0509 4.912 15.9229 5.2 15.6669 5.424C15.4215 5.63733 15.0962 5.744 14.6909 5.744ZM27.9321 12.432C27.8255 13.1787 27.5321 13.84 27.0521 14.416C26.5721 14.9813 25.9588 15.424 25.2121 15.744C24.4655 16.064 23.6335 16.224 22.7161 16.224C21.6708 16.224 20.7481 16.0267 19.9481 15.632C19.1588 15.2267 18.5401 14.6667 18.0921 13.952C17.6441 13.2373 17.4201 12.4107 17.4201 11.472C17.4201 10.5333 17.6441 9.70667 18.0921 8.992C18.5401 8.27733 19.1588 7.72267 19.9481 7.328C20.7481 6.92267 21.6708 6.72 22.7161 6.72C23.6335 6.72 24.4655 6.88 25.2121 7.2C25.9588 7.52 26.5721 7.968 27.0521 8.544C27.5321 9.10933 27.8255 9.77067 27.9321 10.528H25.8361C25.6868 9.84533 25.3295 9.312 24.7641 8.928C24.1988 8.544 23.5161 8.352 22.7161 8.352C22.0761 8.352 21.5161 8.48 21.0361 8.736C20.5561 8.98133 20.1828 9.33867 19.9161 9.808C19.6601 10.2667 19.5321 10.8213 19.5321 11.472C19.5321 12.112 19.6601 12.6667 19.9161 13.136C20.1828 13.6053 20.5561 13.968 21.0361 14.224C21.5161 14.4693 22.0761 14.592 22.7161 14.592C23.5268 14.592 24.2148 14.3947 24.7801 14C25.3455 13.6053 25.6975 13.0827 25.8361 12.432H27.9321ZM31.5903 14.192L30.9823 13.968L36.7423 6.944H39.1423L31.4463 16H29.5103V3.68H31.5903V14.192ZM34.1663 11.52L35.6223 10.208L39.4143 16H36.9663L34.1663 11.52ZM44.9543 16.224C43.8983 16.224 42.9596 16.0267 42.1383 15.632C41.3169 15.2267 40.6716 14.6667 40.2023 13.952C39.7329 13.2373 39.4983 12.4053 39.4983 11.456C39.4983 10.5173 39.7169 9.696 40.1543 8.992C40.6023 8.27733 41.2156 7.72267 41.9943 7.328C42.7836 6.92267 43.6849 6.72 44.6983 6.72C45.7116 6.72 46.5863 6.94933 47.3223 7.408C48.0689 7.856 48.6449 8.49067 49.0503 9.312C49.4556 10.1333 49.6583 11.0987 49.6583 12.208H41.1303V10.624H48.6183L47.5783 11.216C47.5463 10.6187 47.4023 10.1067 47.1463 9.68C46.9009 9.25333 46.5649 8.928 46.1383 8.704C45.7223 8.46933 45.2263 8.352 44.6503 8.352C44.0423 8.352 43.5089 8.47467 43.0503 8.72C42.6023 8.96533 42.2503 9.312 41.9943 9.76C41.7383 10.1973 41.6103 10.72 41.6103 11.328C41.6103 12 41.7596 12.5813 42.0583 13.072C42.3676 13.5627 42.7996 13.9413 43.3543 14.208C43.9196 14.464 44.5863 14.592 45.3543 14.592C46.0476 14.592 46.7569 14.4853 47.4823 14.272C48.2076 14.048 48.8476 13.7387 49.4023 13.344V14.848C48.8476 15.2747 48.1703 15.6107 47.3703 15.856C46.5809 16.1013 45.7756 16.224 44.9543 16.224Z" fill="white"/>
<path fill-rule="evenodd" clip-rule="evenodd" d="M64.2777 1H52V18H52.9444L58.5355 9.7788L53.8889 2.7H57.2889L60.4848 7.8612H60.8928L64.2777 1ZM68.0555 1L62.8422 9.7788L67.2055 16.3H63.8055L60.8928 11.6964H60.4848L56.7222 18H69V1H68.0555Z" fill="white"/>
</svg>
